<svg width="30" height="30" viewBox="0 0 30 30" fill="none" xmlns="http://www.w3.org/2000/svg">
<path fill-rule="evenodd" clip-rule="evenodd" d="M2 0C0.895431 0 0 0.89543 0 2V22C0 26.4183 3.58172 30 8 30H22C26.4183 30 30 26.4183 30 22V8C30 3.58172 26.4183 0 22 0H2ZM8 11.7888C8 8.07576 11.1589 5 14.9551 5C18.779 5 21.9102 8.07576 21.9102 11.7888C21.9102 13.0635 21.4392 14.7815 20.3862 16.4718L15.2876 24.6738H10.6047L14.7057 18.1898C14.5395 18.2175 14.3732 18.2175 14.2069 18.2175C10.6601 18.2175 8 15.5019 8 11.7888ZM11.9902 11.8166C11.9902 13.4514 13.2925 14.7538 14.9828 14.7538C16.6177 14.7538 17.8923 13.4514 17.8923 11.8166C17.8923 10.1817 16.59 8.90705 14.9551 8.90705C13.2925 8.90705 11.9902 10.1817 11.9902 11.8166Z" fill="#B1B5C4"/>
</svg>
