<svg width="28" height="24" viewBox="0 0 28 24" fill="none" xmlns="http://www.w3.org/2000/svg">
<path d="M25.6953 8.208L23.8713 2.73467C23.6068 1.93798 23.0978 1.24493 22.4168 0.754011C21.7359 0.263088 20.9175 -0.000744274 20.078 1.57703e-06H7.92068C7.0812 -0.000744274 6.26283 0.263088 5.58186 0.754011C4.90089 1.24493 4.39195 1.93798 4.12735 2.73467L2.30335 8.208C1.81883 8.4113 1.40505 8.75301 1.11381 9.19035C0.822565 9.62769 0.666801 10.1412 0.666016 10.6667V17.3333C0.666016 18.3373 1.23002 19.2027 2.05135 19.6573C2.03402 19.7453 1.99935 19.8253 1.99935 19.9173V22.6667C1.99935 23.0203 2.13982 23.3594 2.38987 23.6095C2.63992 23.8595 2.97906 24 3.33268 24H4.66602C5.01964 24 5.35878 23.8595 5.60882 23.6095C5.85887 23.3594 5.99935 23.0203 5.99935 22.6667V20H21.9993V22.6667C21.9993 23.0203 22.1398 23.3594 22.3899 23.6095C22.6399 23.8595 22.9791 24 23.3327 24H24.666C25.0196 24 25.3588 23.8595 25.6088 23.6095C25.8589 23.3594 25.9993 23.0203 25.9993 22.6667V19.9173C25.9993 19.8253 25.9647 19.744 25.9473 19.6573C26.3652 19.4295 26.7142 19.0937 26.9579 18.6848C27.2016 18.276 27.331 17.8093 27.3327 17.3333V10.6667C27.3327 9.56133 26.6553 8.612 25.6953 8.208ZM3.33268 17.3333V10.6667H24.666L24.6687 17.3333H3.33268ZM7.92068 2.66667H20.0767C20.6514 2.66667 21.1607 3.032 21.342 3.57867L22.8167 8H5.18202L6.65535 3.57867C6.74381 3.31306 6.91364 3.08204 7.14075 2.91834C7.36786 2.75465 7.64073 2.6666 7.92068 2.66667Z" fill="#777E91"/>
<path d="M6.66602 16C7.77059 16 8.66602 15.1046 8.66602 14C8.66602 12.8954 7.77059 12 6.66602 12C5.56145 12 4.66602 12.8954 4.66602 14C4.66602 15.1046 5.56145 16 6.66602 16Z" fill="#777E91"/>
<path d="M21.332 16C22.4366 16 23.332 15.1046 23.332 14C23.332 12.8954 22.4366 12 21.332 12C20.2275 12 19.332 12.8954 19.332 14C19.332 15.1046 20.2275 16 21.332 16Z" fill="#777E91"/>
</svg>
